<svg xmlns="http://www.w3.org/2000/svg" viewBox="0 0 100 100" width="80" height="80">
  <defs>
    <linearGradient id="char1Gradient" x1="0%" y1="0%" x2="100%" y2="100%">
      <stop offset="0%" style="stop-color:#d65d0e;stop-opacity:1" />
      <stop offset="100%" style="stop-color:#ff8c00;stop-opacity:1" />
    </linearGradient>
  </defs>
  <!-- Character 1 -->
  <circle cx="35" cy="35" r="10" fill="url(#char1Gradient)" stroke="#ffffff" stroke-width="2"/>
  <path d="M35 45 L25 60 L25 75 M35 45 L35 65 M35 45 L45 60 L45 75" stroke="url(#char1Gradient)" stroke-width="3" stroke-linecap="round" fill="none"/>
  
  <!-- Character 2 -->
  <circle cx="65" cy="40" r="10" fill="#ff8c00" stroke="#ffffff" stroke-width="2"/>
  <path d="M65 50 L55 65 L55 80 M65 50 L65 70 M65 50 L75 65 L75 80" stroke="#ff8c00" stroke-width="3" stroke-linecap="round" fill="none"/>
  
  <!-- Character 3 -->
  <circle cx="50" cy="25" r="9" fill="#ffa726" stroke="#ffffff" stroke-width="2"/>
  <path d="M50 34 L42 48 L42 60 M50 34 L50 52 M50 34 L58 48 L58 60" stroke="#ffa726" stroke-width="2.5" stroke-linecap="round" fill="none"/>
</svg>
